<svg xmlns="http://www.w3.org/2000/svg" viewBox="0 0 256 256" width="16" height="16"><g fill="none" stroke-miterlimit="10" font-family="none" font-weight="none" font-size="none" text-anchor="none" style="mix-blend-mode:normal"><path d="M69.333 224h117.334C207.285 224 224 207.285 224 186.667V69.333C224 48.715 207.285 32 186.667 32H69.333C48.715 32 32 48.715 32 69.333v117.334C32 207.285 48.715 224 69.333 224z" fill="#ff6b08"/><path d="M64 117.333V192c0 2.95 2.39 5.333 5.333 5.333h117.334A5.332 5.332 0 0 0 192 192v-74.667zm86 5.334-13.333 10.666H128l13.333-10.666zm-75.333 0H84l-9.333 6.224zM84 133.333l13.333-10.666H106l-13.333 10.666zm22 0 13.333-10.666H128l-13.333 10.666zM117.333 176v-26.667l24 13.334zM150 133.333l13.333-10.666H172l-13.333 10.666zm31.333 0H172l9.333-6.224zM182.325 62.533a5.309 5.309 0 0 0-6.56-3.664L63.307 90.7a5.313 5.313 0 0 0-3.664 6.56l4.341 15.333 122.683-34.72zM71.552 100.325l-1.685-5.962 8.944-2.534zm18.459-.624-8.304 2.352 9.888-13.84 8.304-2.352zm21.088-5.968-8.304 2.352 9.888-13.84 8.309-2.352zm21.088-5.968-8.31 2.352 9.888-13.84 8.304-2.352zm21.082-5.968-8.304 2.352 9.888-13.84 8.31-2.352zm12.779-3.616 7.259-8.496 1.685 5.963z" fill="#fff"/></g></svg>