<svg xmlns="http://www.w3.org/2000/svg" aria-hidden="true" style="width:0;height:0;position:absolute;overflow:hidden"><defs><symbol id="icon-film" viewBox="0 0 32 32"><path fill="none" stroke="#fff" stroke-linecap="round" stroke-linejoin="round" stroke-width="2.667" d="M26.427 2.667H5.574a2.907 2.907 0 0 0-2.907 2.907v20.853a2.907 2.907 0 0 0 2.907 2.907v0h20.853a2.907 2.907 0 0 0 2.907-2.907v0V5.574a2.907 2.907 0 0 0-2.907-2.907v0zm-17.094 0v26.667M22.667 2.667v26.667M2.667 16h26.667M2.667 9.333h6.667M2.667 22.667h6.667m13.333 0h6.667M22.667 9.333h6.667" style="stroke:var(--color1,#fff)"/></symbol><symbol id="icon-search-2" viewBox="0 0 32 32"><path fill="none" stroke="#fff" stroke-linecap="round" stroke-linejoin="round" stroke-width="2.667" d="M14.667 25.333c5.891 0 10.667-4.776 10.667-10.667S20.558 3.999 14.667 3.999v0C8.776 3.999 4 8.775 4 14.666s4.776 10.667 10.667 10.667v0zM28 28l-5.8-5.8" style="stroke:var(--color1,#fff)"/></symbol><symbol id="icon-youtube" viewBox="0 0 32 32"><path fill="#c70024" style="fill:var(--color1,#c70024)" d="M16 0v2.586h13.414v26.828H16V32h16V0z"/><path fill="#ff0c38" style="fill:var(--color2,#ff0c38)" d="M2.586 29.414V2.586H16V0H0v32h16v-2.586z"/><path fill="#ff0c38" style="fill:var(--color2,#ff0c38)" d="M8.374 22.815c2.525.281 5.08.283 7.625.281 2.546.002 5.101 0 7.625-.281 1.066-.119 1.952-.919 2.202-2.001.355-1.542.356-3.226.356-4.814s.003-3.271-.352-4.813c-.249-1.084-1.135-1.882-2.202-2.001-2.525-.282-5.081-.283-7.625-.282-2.545-.001-5.101 0-7.626.282-1.065.119-1.951.918-2.2 2.001-.355 1.542-.359 3.225-.359 4.813s0 3.272.355 4.814c.248 1.083 1.134 1.882 2.201 2.001zm4.998-10.388 6.474 3.377-6.474 3.357v-6.734z"/></symbol></defs></svg>