<svg xmlns="http://www.w3.org/2000/svg" xmlns:xlink="http://www.w3.org/1999/xlink" viewBox="0,0,256,256" width="16px" height="16px" fill-rule="nonzero"><g fill="none" fill-rule="nonzero" stroke="none" stroke-width="1" stroke-linecap="butt" stroke-linejoin="miter" stroke-miterlimit="10" stroke-dasharray="" stroke-dashoffset="0" font-family="none" font-weight="none" font-size="none" text-anchor="none" style="mix-blend-mode: normal"><g transform="scale(5.33333,5.33333)"><path d="M13,42h22c3.866,0 7,-3.134 7,-7v-22c0,-3.866 -3.134,-7 -7,-7h-22c-3.866,0 -7,3.134 -7,7v22c0,3.866 3.134,7 7,7z" fill="#ff6b08"></path><path d="M12,22v14c0,0.553 0.448,1 1,1h22c0.552,0 1,-0.447 1,-1v-14zM28.125,23l-2.5,2h-1.625l2.5,-2zM14,23h1.75l-1.75,1.167zM15.75,25l2.5,-2h1.625l-2.5,2zM19.875,25l2.5,-2h1.625l-2.5,2zM22,33v-5l4.5,2.5zM28.125,25l2.5,-2h1.625l-2.5,2zM34,25h-1.75l1.75,-1.167z" fill="#ffffff"></path><path d="M34.186,11.725c-0.15,-0.53 -0.7,-0.837 -1.23,-0.687l-21.086,5.968c-0.529,0.15 -0.837,0.7 -0.687,1.23l0.814,2.875l23.003,-6.51zM13.416,18.811l-0.316,-1.118l1.677,-0.475zM16.877,18.694l-1.557,0.441l1.854,-2.595l1.557,-0.441zM20.831,17.575l-1.557,0.441l1.854,-2.595l1.558,-0.441zM24.785,16.456l-1.558,0.441l1.854,-2.595l1.557,-0.441zM28.738,15.337l-1.557,0.441l1.854,-2.595l1.558,-0.441zM31.134,14.659l1.361,-1.593l0.316,1.118z" fill="#ffffff"></path></g></g></svg>