<svg xmlns="http://www.w3.org/2000/svg" aria-hidden="true" style="position:absolute;width:0;height:0;overflow:hidden"><defs>
<symbol id="icon-film" viewBox="0 0 32 32">
<path fill="none" stroke-linejoin="round" stroke-linecap="round" stroke-miterlimit="4" stroke-width="2.6667" d="M26.427 2.667h-20.853c-1.605 0-2.907 1.301-2.907 2.907v20.853c0 1.605 1.301 2.907 2.907 2.907h20.853c1.605 0 2.907-1.301 2.907-2.907v-20.853c0-1.605-1.301-2.907-2.907-2.907z"></path>
<path fill="none" stroke-linejoin="round" stroke-linecap="round" stroke-miterlimit="4" stroke-width="2.6667" d="M9.333 2.667v26.667"></path>
<path fill="none" stroke-linejoin="round" stroke-linecap="round" stroke-miterlimit="4" stroke-width="2.6667" d="M22.667 2.667v26.667"></path>
<path fill="none" stroke-linejoin="round" stroke-linecap="round" stroke-miterlimit="4" stroke-width="2.6667" d="M2.667 16h26.667"></path>
<path fill="none" stroke-linejoin="round" stroke-linecap="round" stroke-miterlimit="4" stroke-width="2.6667" d="M2.667 9.333h6.667"></path>
<path fill="none" stroke-linejoin="round" stroke-linecap="round" stroke-miterlimit="4" stroke-width="2.6667" d="M2.667 22.667h6.667"></path>
<path fill="none" stroke-linejoin="round" stroke-linecap="round" stroke-miterlimit="4" stroke-width="2.6667" d="M22.667 22.667h6.667"></path>
<path fill="none" stroke-linejoin="round" stroke-linecap="round" stroke-miterlimit="4" stroke-width="2.6667" d="M22.667 9.333h6.667"></path>
</symbol>
<symbol id="icon-heart-goit" viewBox="0 0 34 32"><path d="m17.231 31.705-2.412-2.412C5.859 21.367.001 16.025.001 9.478.001 4.136 4.136.001 9.478.001c2.929 0 5.858 1.378 7.754 3.618 1.895-2.24 4.825-3.618 7.754-3.618 5.342 0 9.477 4.135 9.477 9.477 0 6.548-5.858 11.889-14.818 19.815l-2.412 2.412z"/></symbol></defs>
<symbol id="icon-cross" viewBox="0 0 32 32">
<path d="M23.733 10.304l-1.504-1.504-5.963 5.963-5.963-5.963-1.504 1.504 5.963 5.963-5.963 5.963 1.504 1.504 5.963-5.963 5.963 5.963 1.504-1.504-5.963-5.963 5.963-5.963z"></path>
</symbol>
<symbol id="icon-mail" viewBox="0 0 32 32">
<path d="M31.523 16.595l-1.557-1.557c-0.636-0.636-1.67-0.635-2.307 0l-8.41 8.41-1.159 4.251-0.284 0.284c-0.212 0.212-0.213 0.554-0.003 0.768l-0.003 0.011 0.010-0.003c0.106 0.104 0.244 0.157 0.382 0.157 0.14 0 0.28-0.054 0.386-0.16l0.284-0.284 4.25-1.159 8.41-8.41c0.636-0.636 0.636-1.671 0-2.307zM20.511 23.732l5.597-5.597 2.319 2.319-5.597 5.597-2.319-2.319zM20.018 24.784l1.76 1.76-2.42 0.66 0.66-2.419zM30.75 18.129l-1.551 1.551-2.319-2.318 1.551-1.551c0.21-0.21 0.552-0.21 0.762-0.001l1.557 1.557c0.209 0.209 0.209 0.551-0.001 0.761z"></path>
<path d="M15.847 24.396h-13.727c2.485-1.969 8.088-6.438 10.966-8.963l0.777 0.686c0.547 0.489 1.266 0.733 1.985 0.733 0.717 0 1.436-0.244 1.981-0.731l12.772-11.278v8.624c0 0.302 0.245 0.546 0.546 0.546s0.546-0.244 0.546-0.546v-9.836c0-0.004-0.002-0.008-0.003-0.012-0.001-0.061-0.010-0.122-0.033-0.181-0.002-0.004-0.004-0.007-0.006-0.010-0.006-0.015-0.016-0.026-0.022-0.040-0.022-0.044-0.049-0.085-0.082-0.121-0.014-0.015-0.029-0.028-0.045-0.042-0.034-0.030-0.071-0.055-0.111-0.075-0.018-0.009-0.034-0.019-0.053-0.026-0.060-0.023-0.123-0.039-0.191-0.039h-30.601c-0.068 0-0.131 0.016-0.192 0.039-0.019 0.007-0.036 0.016-0.053 0.026-0.040 0.021-0.078 0.045-0.111 0.075-0.016 0.014-0.031 0.027-0.045 0.042-0.033 0.036-0.059 0.076-0.082 0.121-0.007 0.014-0.016 0.026-0.022 0.040-0.002 0.004-0.004 0.007-0.006 0.010-0.022 0.059-0.031 0.12-0.032 0.181-0.001 0.004-0.003 0.008-0.003 0.013v21.311c0 0.002 0.001 0.003 0.001 0.005 0.001 0.058 0.009 0.117 0.029 0.174 0.002 0.007 0.007 0.011 0.010 0.018 0.008 0.019 0.019 0.036 0.028 0.054 0.021 0.040 0.045 0.077 0.074 0.11 0.015 0.017 0.031 0.032 0.048 0.046 0.033 0.029 0.069 0.053 0.109 0.073 0.019 0.010 0.036 0.020 0.055 0.028 0.061 0.022 0.125 0.038 0.192 0.038h15.3c0.302 0 0.546-0.244 0.546-0.546s-0.245-0.546-0.546-0.546zM1.093 23.815v-18.972l11.168 9.861c-3.036 2.652-8.935 7.344-11.168 9.111zM29.703 4.178l-12.6 11.126c-0.692 0.619-1.82 0.619-2.515-0.002l-1.081-0.955c-0.003-0.004-0.004-0.008-0.007-0.011-0.012-0.014-0.029-0.019-0.042-0.031l-11.467-10.126h27.712z"></path>
</symbol>
<symbol id="icon-github" viewBox="0 0 32 32">
<path d="M16 5.343c-6.196 0-11.219 5.023-11.219 11.219 0 4.957 3.214 9.162 7.673 10.645 0.561 0.103 0.766-0.244 0.766-0.54 0-0.267-0.010-1.152-0.016-2.088-3.12 0.678-3.779-1.323-3.779-1.323-0.511-1.296-1.246-1.641-1.246-1.641-1.020-0.696 0.077-0.682 0.077-0.682 1.126 0.078 1.72 1.156 1.72 1.156 1.001 1.715 2.627 1.219 3.265 0.931 0.102-0.723 0.392-1.219 0.712-1.498-2.49-0.283-5.11-1.246-5.11-5.545 0-1.226 0.438-2.225 1.154-3.011-0.114-0.285-0.501-1.426 0.111-2.97 0 0 0.941-0.301 3.085 1.15 0.894-0.25 1.854-0.373 2.807-0.377 0.953 0.004 1.913 0.129 2.809 0.379 2.14-1.453 3.083-1.15 3.083-1.15 0.613 1.545 0.227 2.685 0.112 2.969 0.719 0.785 1.153 1.785 1.153 3.011 0 4.31-2.624 5.259-5.123 5.537 0.404 0.348 0.761 1.030 0.761 2.076 0 1.5-0.015 2.709-0.015 3.079 0 0.299 0.204 0.648 0.772 0.538 4.455-1.486 7.666-5.69 7.666-10.645 0-6.195-5.023-11.219-11.219-11.219z"></path>
</symbol>
</defs>
</svg>

